{
  "accessors": [
    {
      "bufferView": 2,
      "componentType": 5126,
      "count": 194,
      "max": [
        0.28817400336265564,
        9.9545450210571289,
        4.1757268905639648
      ],
      "min": [
        -9.7019929885864258,
        3.956928014755249,
        2.375622034072876
      ],
      "type": "VEC3"
    },
    {
      "bufferView": 2,
      "byteOffset": 2328,
      "componentType": 5126,
      "count": 194,
      "max": [
        1,
        1,
        1
      ],
      "min": [
        -1,
        -1,
        -1
      ],
      "type": "VEC3"
    },
    {
      "bufferView": 1,
      "componentType": 5126,
      "count": 194,
      "max": [
        0.98626798391342163,
        0.37140798568725586
      ],
      "min": [
        0.91894698143005371,
        0.019369000568985939
      ],
      "type": "VEC2"
    },
    {
      "bufferView": 0,
      "componentType": 5125,
      "count": 324,
      "max": [
        193
      ],
      "min": [
        0
      ],
      "type": "SCALAR"
    },
    {
      "bufferView": 2,
      "byteOffset": 4656,
      "componentType": 5126,
      "count": 3054,
      "max": [
        11.127411842346191,
        11.127411842346191,
        9.738856315612793
      ],
      "min": [
        -13.252700805664062,
        -11.924896240234375,
        -0
      ],
      "type": "VEC3"
    },
    {
      "bufferView": 2,
      "byteOffset": 41304,
      "componentType": 5126,
      "count": 3054,
      "max": [
        1,
        1,
        1
      ],
      "min": [
        -1,
        -1,
        -1
      ],
      "type": "VEC3"
    },
    {
      "bufferView": 1,
      "byteOffset": 1552,
      "componentType": 5126,
      "count": 3054,
      "max": [
        0.99425101280212402,
        1
      ],
      "min": [
        0,
        0.0036669999826699495
      ],
      "type": "VEC2"
    },
    {
      "bufferView": 0,
      "byteOffset": 1296,
      "componentType": 5125,
      "count": 8463,
      "max": [
        3053
      ],
      "min": [
        0
      ],
      "type": "SCALAR"
    },
    {
      "bufferView": 2,
      "byteOffset": 77952,
      "componentType": 5126,
      "count": 1037,
      "max": [
        1.7351770401000977,
        9.8936185836791992,
        9.3326663970947266
      ],
      "min": [
        -10.166335105895996,
        -9.7625360488891602,
        0.50011199712753296
      ],
      "type": "VEC3"
    },
    {
      "bufferView": 2,
      "byteOffset": 90396,
      "componentType": 5126,
      "count": 1037,
      "max": [
        1,
        1,
        1
      ],
      "min": [
        -1,
        -1,
        -1
      ],
      "type": "VEC3"
    },
    {
      "bufferView": 1,
      "byteOffset": 25984,
      "componentType": 5126,
      "count": 1037,
      "max": [
        0.99425101280212402,
        0.99134200811386108
      ],
      "min": [
        0.0068330001085996628,
        0.0036669999826699495
      ],
      "type": "VEC2"
    },
    {
      "bufferView": 0,
      "byteOffset": 35148,
      "componentType": 5125,
      "count": 2493,
      "max": [
        1036
      ],
      "min": [
        0
      ],
      "type": "SCALAR"
    }
  ],
  "asset": {
    "extras": {
      "author": "Dani Ortega (https://sketchfab.com/I_starboy_I)",
      "license": "CC-BY-4.0 (http://creativecommons.org/licenses/by/4.0/)",
      "source": "https://sketchfab.com/3d-models/beach-d5a143c2d18c4447a5dcd1a97bf2c602",
      "title": "Beach"
    },
    "generator": "Sketchfab-8.58.1",
    "version": "2.0"
  },
  "bufferViews": [
    {
      "buffer": 0,
      "byteLength": 45120,
      "byteOffset": 0,
      "name": "floatBufferViews",
      "target": 34963
    },
    {
      "buffer": 0,
      "byteLength": 34280,
      "byteOffset": 45120,
      "byteStride": 8,
      "name": "floatBufferViews",
      "target": 34962
    },
    {
      "buffer": 0,
      "byteLength": 102840,
      "byteOffset": 79400,
      "byteStride": 12,
      "name": "floatBufferViews",
      "target": 34962
    }
  ],
  "buffers": [
    {
      "byteLength": 182240,
      "uri": "scene.bin"
    }
  ],
  "images": [
    {
      "uri": "textures/initialShadingGroup_baseColor.png"
    }
  ],
  "materials": [
    {
      "alphaMode": "BLEND",
      "doubleSided": true,
      "name": "initialShadingGroup",
      "pbrMetallicRoughness": {
        "baseColorFactor": [
          1,
          1,
          1,
          1
        ],
        "baseColorTexture": {
          "index": 0,
          "texCoord": 0
        },
        "metallicFactor": 0.5,
        "roughnessFactor": 1
      }
    },
    {
      "doubleSided": false,
      "name": "lambert2SG",
      "pbrMetallicRoughness": {
        "baseColorFactor": [
          0,
          0,
          0,
          1
        ],
        "metallicFactor": 0,
        "roughnessFactor": 1
      }
    }
  ],
  "meshes": [
    {
      "primitives": [
        {
          "attributes": {
            "NORMAL": 1,
            "POSITION": 0,
            "TEXCOORD_0": 2
          },
          "indices": 3,
          "material": 0,
          "mode": 4
        }
      ]
    },
    {
      "primitives": [
        {
          "attributes": {
            "NORMAL": 5,
            "POSITION": 4,
            "TEXCOORD_0": 6
          },
          "indices": 7,
          "material": 0,
          "mode": 4
        }
      ]
    },
    {
      "primitives": [
        {
          "attributes": {
            "NORMAL": 9,
            "POSITION": 8,
            "TEXCOORD_0": 10
          },
          "indices": 11,
          "material": 1,
          "mode": 4
        }
      ]
    }
  ],
  "nodes": [
    {
      "children": [
        1
      ],
      "name": "RootNode (gltf orientation matrix)",
      "rotation": [
        -0.70710678118654746,
        -0,
        -0,
        0.70710678118654757
      ]
    },
    {
      "children": [
        2
      ],
      "matrix": [
        1,
        0,
        0,
        0,
        0,
        1,
        0,
        0,
        0,
        0,
        1,
        0,
        0.575286865234375,
        -1.1002810001373291,
        -1.0488243103027344,
        1
      ],
      "name": "RootNode (model correction matrix)"
    },
    {
      "children": [
        3,
        4,
        5
      ],
      "name": "Playa.obj.cleaner.materialmerger.gles"
    },
    {
      "mesh": 0,
      "name": ""
    },
    {
      "mesh": 1,
      "name": ""
    },
    {
      "mesh": 2,
      "name": ""
    }
  ],
  "samplers": [
    {
      "magFilter": 9728,
      "minFilter": 9986,
      "wrapS": 10497,
      "wrapT": 10497
    }
  ],
  "scene": 0,
  "scenes": [
    {
      "name": "OSG_Scene",
      "nodes": [
        0
      ]
    }
  ],
  "textures": [
    {
      "sampler": 0,
      "source": 0
    }
  ]
}

